<svg xmlns="http://www.w3.org/2000/svg" width="774" height="524.89" viewBox="0 0 774 524.89" xmlns:xlink="http://www.w3.org/1999/xlink" role="img" artist="Katerina Limpitsouni"><path d="m597.68,159.65s-.03-.04-.04-.06c0-.02,0-.05-.02-.07-.03-.04-.06-.07-.09-.11-.11-.09-.22-.18-.34-.27.24-5.71.32-11.56-2.01-16.9-2.17-4.75-6.18-8.44-10.77-10.84-2.01-1.04-4.1-1.9-6.41-1.73-1.96.14-3.8.91-5.32,2.15-3.1,2.53-4.49,6.91-3.1,10.71,1.74,4.76,6.63,7.81,11.03,9.77,5.2,2.31,10.94,3.77,15.47,7.35,0,.04.01.08.02.13.02.07.05.13.1.19.02.04.06.07.1.1.05.05.11.08.19.1l.45.15s.04.01.06.02c.02,0,.05,0,.07,0,.02,0,.05.02.07.02.02,0,.03,0,.05-.01,0,0,.02,0,.02,0,.02,0,.04-.02.07-.02.02,0,.05,0,.07-.02,0,0,.01-.01.02-.01.01,0,.03,0,.04-.01.02-.01.03-.03.05-.05.02-.01.04-.02.06-.04.01-.02.03-.04.04-.06.01-.02.03-.04.04-.06,0-.02,0-.04.01-.05.01-.03.03-.05.04-.08,0-.05.01-.1.02-.15,0-.05-.01-.1-.02-.15Z" fill="#63ffae" stroke="#06060f" stroke-miterlimit="10" stroke-width="1.5"/><path d="m619.33,130.64c-2.07-2.75-5.47-4.01-8.83-3.35-2.87.61-5.69,1.8-7.87,3.79-2.3,2.1-3.62,5-4.52,7.92-2.12,6.85-2.55,14.18-1.46,21.25.03.17.21.35.38.38,1.56.29,3.01.63,4.62.44,1.85-.22,3.61-.9,5.19-1.87,3.33-2.04,6.1-5.15,8.39-8.27,2.36-3.22,4.22-6.84,5.23-10.7.87-3.34,1.06-6.7-1.12-9.6Z" fill="#63ffae" stroke="#06060f" stroke-miterlimit="10" stroke-width="1.5"/><path d="m357.92,185.96c-1.44,0-2.67.2-3.73.54l.54-3.37s-27.06-6.29-49.93-.55l11.3,57.58h29.52l.83-5.19h0c1.03-3.48,4.41-8.51,7.17-12.26,1.87-2.54,4.03-4.84,6.36-6.95,7.23-6.55,8.87-16.87,8.87-16.87,0,0,1.46-12.94-10.93-12.94Zm5.07,12.85c-.54,3.89-2.15,7.56-4.57,10.66-2.72,3.47-6.89,8.76-7.97,9.84-.35.35-1.03,1.23-1.88,2.4l3.58-22.43h0l.97-6.06c.94-2.83,2.79-5.26,6.44-3.62,3.51,1.58,3.94,5.54,3.43,9.21Z" fill="#6c63ff" stroke="#06060f" stroke-miterlimit="10" stroke-width="1.5"/><line x1="774" y1="523.17" x2="0" y2="523.17" fill="none" stroke="#06060f" stroke-miterlimit="10" stroke-width="1.5"/><polygon points="108.53 523.57 120.71 523.57 142.91 322.31 131.45 322.31 108.53 523.57" fill="#fff" stroke="#06060f" stroke-miterlimit="10" stroke-width="1.5"/><polygon points="262.53 523.57 250.36 523.57 228.15 322.31 239.61 322.31 262.53 523.57" fill="#fff" stroke="#06060f" stroke-miterlimit="10" stroke-width="1.5"/><rect x="109.96" y="305.12" width="151.14" height="19.34" transform="translate(371.07 629.57) rotate(-180)" fill="#fff" stroke="#06060f" stroke-miterlimit="10" stroke-width="1.5"/><rect x="338.45" y="485.35" width="20.1" height="20.1" transform="translate(697 990.79) rotate(-180)" fill="#ffb6b6" stroke="#06060f" stroke-miterlimit="10" stroke-width="1.5"/><path d="m334.38,521.13c-1.72-1.39-2.65-2.95-2.76-4.62-.13-1.91.83-3.97,2.85-6.1.05-.61.67-8.23,2.07-9.59-.12-.41-.83-3.11.34-4.86.55-.83,1.43-1.31,2.63-1.43h.05s.03.04.03.04c.03.06,3.42,5.95,8.53,6.47,2.92.3,5.85-1.21,8.7-4.47.1-.24.91-4.22,1.43-6.85l.02-.11,27.79,14.61,16.25,4.5c2.04.57,3.47,2.44,3.47,4.56,0,1.81-1.05,3.48-2.68,4.26l-7.88,3.79c-3.29,1.58-6.96,2.42-10.61,2.42h-42.72c-2.77,0-5.43-.92-7.5-2.6Z" fill="#06060f" stroke="#06060f" stroke-miterlimit="10" stroke-width="1.5"/><path d="m138.13,262.61c0,10.05,2.82,19.93,8.19,28.5.54.87,1.11,1.73,1.71,2.57,6.3,8.87,15.14,15.62,25.37,19.35l69.25,25.27,28.32,10.33,6.96,2.54,27.77,10.13,4.93,22.64.61,2.8,9.74,44.69,13.07,60.01,28.65.86-9-156-22.41-12.32-31.84-17.52-61.88-34.03-3.87-2.13.14-2.65,1.86-36.35-18.71.4-11.01.23-24.75.53-31.23.71-1,20c-.34,2.47-10.87,6.97-10.87,9.44Z" fill="#06060f" stroke="#06060f" stroke-miterlimit="10" stroke-width="1.5"/><rect x="293.69" y="482.01" width="20.1" height="20.1" transform="translate(554.27 1013.21) rotate(-173.99)" fill="#ffb6b6" stroke="#06060f" stroke-miterlimit="10" stroke-width="1.5"/><path d="m284.74,511.29c-.06,1.67.7,3.31,2.26,4.88,1.88,1.88,4.43,3.08,7.19,3.37l42.48,4.47c3.63.38,7.37-.07,10.8-1.29l8.23-2.94c1.7-.61,2.93-2.17,3.11-3.96.23-2.11-1-4.12-2.97-4.9l-15.68-6.17-21.96-14.66-3.88-2.59-.28-.19-.03.1c-.23.72-.48,1.55-.74,2.38-.65,2.08-1.3,4.12-1.39,4.28-3.18,2.95-6.25,4.14-9.13,3.54-5.02-1.05-7.77-7.26-7.8-7.32l-.02-.05h-.05c-.38,0-.74.04-1.07.12-.7.16-1.27.51-1.7,1.03-1.34,1.62-.91,4.38-.84,4.8-1.53,1.21-2.95,8.72-3.06,9.33-2.23,1.91-3.4,3.85-3.47,5.77Z" fill="#06060f" stroke="#06060f" stroke-miterlimit="10" stroke-width="1.5"/><path d="m138.13,262.61c2.89,9.63,2.82,19.93,8.19,28.5.78.44,1.57.85,2.37,1.24l93.31,45.63.65.32,6.01,2.93,26.55,12.98,2.53,23.03.32,2.85,11.72,106.52,4.36.59,19.13,2.59.79.11,4.12.56.02-.37,2.78-58.66,4.59-97.05-21-14.6-29.83-20.76-57.98-40.32-3.62-2.53.41-2.62,3.44-21.85-11.01.23-24.75.53-31.23.71-7,7c-.34,2.47-5,22-4.87,22.44Z" fill="#06060f" stroke="#06060f" stroke-miterlimit="10" stroke-width="1.5"/><polygon points="205.98 231.93 233.84 267.65 235.7 231.3 205.98 231.93" fill="#06060f" stroke="#06060f" stroke-miterlimit="10" stroke-width="1.5"/><polygon points="702 522.48 685.9 522.48 656.55 263.03 671.7 263.03 702 522.48" fill="#fff" stroke="#06060f" stroke-miterlimit="10" stroke-width="1.5"/><polygon points="259.83 522.48 275.93 522.48 305.28 263.03 290.13 263.03 259.83 522.48" fill="#fff" stroke="#06060f" stroke-miterlimit="10" stroke-width="1.5"/><rect x="261.72" y="240.3" width="438.38" height="25.57" fill="#fff" stroke="#06060f" stroke-miterlimit="10" stroke-width="1.5"/><path d="m465.89,234.86l-22.66-88.06c-.14-.53-.06-1.08.22-1.55.28-.47.72-.8,1.25-.94,1.09-.28,2.21.38,2.49,1.47l22.66,88.06c.28,1.09-.38,2.21-1.47,2.49-.17.04-.34.06-.51.06-.91,0-1.74-.61-1.98-1.53Z" fill="#fff" stroke="#06060f" stroke-miterlimit="10" stroke-width="1.5"/><circle cx="444.51" cy="145.26" r="3.84" fill="#fff" stroke="#06060f" stroke-miterlimit="10" stroke-width="1.5"/><path d="m404.35,237.77v-1.35c0-1.13.92-2.04,2.04-2.04h73.66c1.13,0,2.04.92,2.04,2.04v1.35c0,1.13-.92,2.04-2.04,2.04h-73.66c-1.13,0-2.04-.92-2.04-2.04Z" fill="#fff" stroke="#06060f" stroke-miterlimit="10" stroke-width="1.5"/><path d="m432.54,193.77l-3.88-.52c-1.12-.15-1.9-1.18-1.75-2.3L452.26,2.52c.15-1.12,1.18-1.91,2.3-1.75l3.88.52c1.12.15,1.9,1.18,1.75,2.3l-25.36,188.43c-.14,1.02-1.02,1.77-2.02,1.77-.09,0-.18,0-.27-.02Z" fill="#fff" stroke="#06060f" stroke-miterlimit="10" stroke-width="1.5"/><path d="m174.14,59.62c0-18.04,14.63-32.67,32.67-32.67s32.67,14.63,32.67,32.67c0,14.63-9.62,27.02-22.88,31.18l-6.32,41.74-32.2-26.83s6.96-8.86,10.69-18.85c-8.82-5.85-14.63-15.86-14.63-27.24Z" fill="#ffb6b6" stroke="#06060f" stroke-miterlimit="10" stroke-width="1.5"/><path d="m189.67,87.86s-6.23-31.52,2.77-27.77c9,3.75,6.59,10.09,6.59,10.09h0l8.63-12.76v-14.63s5.63-6.38,5.63-6.38l24.01,10.13s12.76-37.52-23.63-25.51c0,0-31.14-12.76-40.14,9.38-21.35,49.86,16.14,57.44,16.14,57.44Z" fill="#06060f" stroke="#06060f" stroke-miterlimit="10" stroke-width="1.5"/><path d="m145.53,243.05l85.38.38c7.11.36,12.97-3.87,12.3-8.86l-16.18-119.9-28.93-15.16c-6.1-3.2-13.58-2.02-18.4,2.91l-17.15,17.53c-4.5,4.6-7.39,9.88-8.43,15.42l-8,79.38c-.53,2.78-.07,5.61,1.31,8.25l3.14,5.95c3.33,6.31-14.57,13.63-5.03,14.11Z" fill="#fff" stroke="#06060f" stroke-miterlimit="10" stroke-width="1.5"/><path d="m229.79,119.24h0c1.37-1.93,1.06-4.24-.8-5.96l-13.61-12.53c-5.76-5.31-15.17-7.98-24.55-6.99l-33.61,3.57c-9.45,1-15.19,7.87-11.87,14.17l1.68,3.18-2.27,4.33c-3.33,6.34.72,13.42,9.36,16.37h0s26.91-36.89,41.91-27.74c8,4.88,15.72,9.77,21.18,13.26,3.94,2.52,10.2,1.69,12.58-1.66Z" fill="#6c63ff" stroke="#06060f" stroke-miterlimit="10" stroke-width="1.5"/><path d="m290.34,230.35l-31.06-6.17,3.6-18.14,31.06,6.17c3.87-2.68,9.22-3.82,14.75-2.72,9.68,1.92,16.24,9.98,14.65,17.99-1.59,8.01-10.73,12.95-20.41,11.03-5.53-1.1-10.04-4.21-12.59-8.16Z" fill="#ffb6b6" stroke="#06060f" stroke-miterlimit="10" stroke-width="1.5"/><polyline points="178.12 166.32 210.6 224.2 273.46 235.07 287.11 203.53 227.51 196.91 205.61 121.94" fill="#fff" stroke="#06060f" stroke-miterlimit="10" stroke-width="1.5"/><rect x="531.98" y="215.94" width="128.02" height="24.15" fill="#fff" stroke="#06060f" stroke-miterlimit="10" stroke-width="1.5"/><rect x="562.78" y="208.09" width="85.75" height="7.25" fill="#6c63ff" stroke="#06060f" stroke-miterlimit="10" stroke-width="1.5"/><rect x="554.32" y="196.01" width="85.75" height="12.08" fill="#fff" stroke="#06060f" stroke-miterlimit="10" stroke-width="1.5"/><path d="m616.6,196.17h-39.33l-7.43-40.18c17.91,1.53,36.28,1.53,55.11,0l-8.35,40.18Z" fill="#fff" stroke="#06060f" stroke-miterlimit="10" stroke-width="1.5"/></svg>